<svg xmlns="http://www.w3.org/2000/svg" width="636" height="301"><g fill="none" fill-rule="evenodd"><path d="M0 0h636v301H0z"/><circle cx="160.5" cy="224.5" r="5" fill="#F7F0AF" stroke="#000"/><circle cx="579.5" cy="119.5" r="5" fill="#E9FF2F" stroke="#000" transform="rotate(-180 579.5 119.5)"/><circle cx="370.5" cy="203.5" r="5" fill="#85453D" stroke="#000" transform="rotate(-180 370.5 203.5)"/><circle cx="265.5" cy="203.5" r="5" fill="#FF634F" stroke="#000" transform="rotate(-180 265.5 203.5)"/><circle cx="97.5" cy="161.5" r="5" fill="#FFD765" stroke="#000" transform="rotate(-180 97.5 161.5)"/><circle cx="601.5" cy="140.5" r="5" fill="#F6FF55" fill-opacity=".174" stroke="#000"/><circle cx="161.5" cy="98.5" r="5" fill="#F6FF55" fill-opacity=".174" stroke="#000"/><circle cx="350.5" cy="161.5" r="5" fill="#F0B9FF" stroke="#000" transform="rotate(-180 350.5 161.5)"/><circle cx="391.5" cy="56.5" r="5" fill="#10B5FF" stroke="#000"/><circle cx="181.5" cy="182.5" r="5" fill="#B0E0FF" stroke="#000"/><circle cx="329.5" cy="161.5" r="5" fill="#9CCEB7" stroke="#000" transform="rotate(-180 329.5 161.5)"/><circle cx="559.5" cy="56.5" r="5" fill="#FF1E27" stroke="#000"/><circle cx="349.5" cy="266.5" r="5" fill="#FFAFAF" stroke="#000" transform="rotate(-180 349.5 266.5)"/><circle cx="312.5" cy="224.5" r="5" fill="#ABFF7E" stroke="#000"/><circle cx="539.5" cy="245.5" r="5" fill="#787E47" stroke="#000" transform="rotate(-180 539.5 245.5)"/><circle cx="432.5" cy="98.5" r="5" fill="#BDCADA" stroke="#000"/><circle cx="76.5" cy="56.5" r="5" fill="#31E992" stroke="#000"/><circle cx="349.5" cy="77.5" r="5" fill="#31E992" stroke="#000" transform="rotate(-180 349.5 77.5)"/><circle cx="559.5" cy="266.5" r="5" fill="#FF50B2" stroke="#000" transform="rotate(-180 559.5 266.5)"/><circle cx="539.5" cy="161.5" r="5" fill="#2FFFD6" stroke="#000" transform="rotate(-180 539.5 161.5)"/><circle cx="35.5" cy="119.5" r="5" fill="#10B5FF" stroke="#000" transform="rotate(-180 35.5 119.5)"/><circle cx="539.5" cy="182.5" r="5" fill="#FFA393" stroke="#000"/><circle cx="223.5" cy="77.5" r="5" fill="#2D2CFF" stroke="#000" transform="rotate(-180 223.5 77.5)"/><circle cx="76.5" cy="245.5" r="5" fill="#F4E0F8" stroke="#000"/></g></svg>