<svg xmlns="http://www.w3.org/2000/svg" width="636" height="241"><g fill="none" fill-rule="evenodd"><path d="M0 0h636v241H0z"/><g fill="#000" fill-rule="nonzero"><path d="M124.104 94.136c3.332 0 5.576-2.72 5.576-6.392s-2.244-6.392-5.576-6.392c-3.332 0-5.576 2.72-5.576 6.392s2.244 6.392 5.576 6.392Zm0-1.428c-2.176 0-3.876-1.564-3.876-4.964 0-3.264 1.7-4.964 3.876-4.964s3.876 1.7 3.876 4.964c0 3.264-1.7 4.964-3.876 4.964ZM134.39 94.136c.51 0 .782-.272.782-.748v-5.372c0-1.428 1.02-2.38 2.448-2.38s2.312.952 2.312 2.38v5.372c0 .476.272.748.782.748s.782-.272.782-.748v-5.644c0-2.04-1.36-3.536-3.536-3.536-1.36 0-2.193.561-2.788 1.275v-.527c0-.476-.272-.748-.782-.748s-.782.272-.782.748v8.432c0 .476.272.748.782.748ZM150.218 94.136c2.244 0 4.556-1.088 4.556-2.04 0-.34-.272-.612-.68-.612-.952 0-1.972 1.292-3.876 1.292-1.887 0-3.179-1.037-3.383-3.06h7.327c.476 0 .68-.272.68-.68 0-2.856-2.04-4.828-4.828-4.828-2.788 0-4.828 2.04-4.828 4.964 0 2.924 2.04 4.964 5.032 4.964Zm-.204-8.568c1.7 0 2.975.986 3.162 2.856h-6.307c.255-1.887 1.513-2.856 3.145-2.856ZM168.053 94.136c2.38 0 4.148-1.088 4.148-3.06 0-1.836-1.36-2.584-3.468-2.856l-.544-.068c-1.564-.204-2.312-.408-2.312-1.292 0-.884.748-1.292 2.108-1.292 2.516 0 2.244 1.7 3.4 1.7.34 0 .612-.272.612-.68 0-1.088-1.496-2.38-3.876-2.38-1.972 0-3.808.816-3.808 2.788s1.768 2.448 3.468 2.652l.544.068c1.564.204 2.312.544 2.312 1.496s-.816 1.564-2.38 1.564c-2.652 0-2.312-1.972-3.468-1.972-.408 0-.68.272-.68.748 0 1.292 1.632 2.584 3.944 2.584ZM179.41 94.136c1.343 0 2.193-.544 2.788-1.275v.527c0 .476.272.748.782.748s.782-.272.782-.748v-8.432c0-.476-.272-.748-.782-.748s-.782.272-.782.748v5.372c0 1.428-1.02 2.38-2.448 2.38s-2.312-.952-2.312-2.38v-5.372c0-.476-.272-.748-.782-.748s-.782.272-.782.748V90.6c0 2.04 1.36 3.536 3.536 3.536ZM199.488 94.136c.51 0 .782-.272.782-.748V87.2c0-1.768-1.224-2.992-3.06-2.992-1.292 0-2.074.544-2.652 1.309-.51-.816-1.411-1.309-2.516-1.309-1.037 0-1.734.442-2.244 1.071v-.323c0-.476-.272-.748-.782-.748s-.782.272-.782.748v8.432c0 .476.272.748.782.748s.782-.272.782-.748V87.54c0-1.156.748-1.904 1.904-1.904s1.768.748 1.768 1.904v5.848c0 .476.272.748.782.748s.782-.272.782-.748v-5.933c.034-1.105.765-1.819 1.904-1.819 1.156 0 1.768.748 1.768 1.904v5.848c0 .476.272.748.782.748ZM215.894 94.136c.51 0 .782-.272.782-.748V87.2c0-1.768-1.224-2.992-3.06-2.992-1.292 0-2.074.544-2.652 1.309-.51-.816-1.411-1.309-2.516-1.309-1.037 0-1.734.442-2.244 1.071v-.323c0-.476-.272-.748-.782-.748s-.782.272-.782.748v8.432c0 .476.272.748.782.748s.782-.272.782-.748V87.54c0-1.156.748-1.904 1.904-1.904s1.768.748 1.768 1.904v5.848c0 .476.272.748.782.748s.782-.272.782-.748v-5.933c.034-1.105.765-1.819 1.904-1.819 1.156 0 1.768.748 1.768 1.904v5.848c0 .476.272.748.782.748ZM225.415 94.136c2.244 0 4.556-1.088 4.556-2.04 0-.34-.272-.612-.68-.612-.952 0-1.972 1.292-3.876 1.292-1.887 0-3.179-1.037-3.383-3.06h7.327c.476 0 .68-.272.68-.68 0-2.856-2.04-4.828-4.828-4.828-2.788 0-4.828 2.04-4.828 4.964 0 2.924 2.04 4.964 5.032 4.964Zm-.204-8.568c1.7 0 2.975.986 3.162 2.856h-6.307c.255-1.887 1.513-2.856 3.145-2.856ZM234.596 94.136c.51 0 .782-.272.782-.748v-5.78c.748-1.02 1.564-1.972 2.584-1.972.884 0 1.156.68 1.836.68.544 0 .748-.408.748-.748 0-.68-.816-1.36-2.176-1.36-1.326 0-2.278.697-2.992 1.802v-1.054c0-.476-.272-.748-.782-.748s-.782.272-.782.748v8.432c0 .476.272.748.782.748ZM245.324 98.08c.51 0 .782-.272 1.054-.816l5.644-11.696c.136-.272.204-.476.204-.68 0-.408-.272-.68-.714-.68-.476 0-.68.306-.85.68l-3.179 6.919-3.417-6.919c-.238-.476-.442-.68-.918-.68-.442 0-.714.306-.714.714 0 .272.102.442.204.646l3.927 7.871-1.683 3.485c-.102.204-.204.408-.204.612 0 .306.204.544.646.544ZM269.466 94.136c.51 0 .782-.272.782-.748V81.284c0-.476-.272-.748-.782-.748s-.782.272-.782.748v4.522c-.731-1.003-1.87-1.598-3.332-1.598-2.788 0-4.692 2.176-4.692 4.964 0 2.788 1.904 4.964 4.692 4.964 1.462 0 2.601-.595 3.332-1.598v.85c0 .476.272.748.782.748Zm-3.978-1.36c-1.836 0-3.196-1.224-3.196-3.604s1.36-3.604 3.196-3.604 3.196 1.224 3.196 3.604-1.36 3.604-3.196 3.604ZM277.661 94.136c1.445 0 2.567-.578 3.332-1.377v.629c0 .476.272.748.782.748s.782-.272.782-.748V87.54c0-2.312-1.7-3.332-3.944-3.332-2.108 0-3.74.748-3.74 1.7 0 .408.34.612.748.612.884 0 1.36-.884 3.128-.884 1.564 0 2.244.748 2.244 1.972v.544a9.833 9.833 0 0 0-2.652-.34c-2.788 0-4.488 1.292-4.488 3.264 0 1.972 1.7 3.06 3.808 3.06Zm.204-1.36c-1.36 0-2.38-.476-2.38-1.7s1.02-1.904 2.856-1.904a8.68 8.68 0 0 1 2.652.408v1.768c-.612.612-1.632 1.428-3.128 1.428ZM288.576 98.08c.51 0 .782-.272 1.054-.816l5.644-11.696c.136-.272.204-.476.204-.68 0-.408-.272-.68-.714-.68-.476 0-.68.306-.85.68l-3.179 6.919-3.417-6.919c-.238-.476-.442-.68-.918-.68-.442 0-.714.306-.714.714 0 .272.102.442.204.646l3.927 7.871-1.683 3.485c-.102.204-.204.408-.204.612 0 .306.204.544.646.544ZM305.357 94.136c.51 0 .782-.272.782-.748v-8.432c0-.476-.272-.748-.782-.748s-.782.272-.782.748v8.432c0 .476.272.748.782.748Zm0-11.628c.918 0 1.054-.136 1.054-1.326s-.136-1.326-1.054-1.326-1.054.136-1.054 1.326.136 1.326 1.054 1.326ZM311.393 94.136c.51 0 .782-.272.782-.748v-5.372c0-1.428 1.02-2.38 2.448-2.38s2.312.952 2.312 2.38v5.372c0 .476.272.748.782.748s.782-.272.782-.748v-5.644c0-2.04-1.36-3.536-3.536-3.536-1.36 0-2.193.561-2.788 1.275v-.527c0-.476-.272-.748-.782-.748s-.782.272-.782.748v8.432c0 .476.272.748.782.748ZM329.67 94.136c.476 0 .816-.272.85-.748l.612-9.214 2.244 5.27c.272.646.476.952 1.088.952.612 0 .816-.306 1.088-.952l2.244-5.27.612 9.214c.034.476.374.748.85.748s.782-.272.782-.748c0-.136-.034-.476-.068-.884l-.816-10.268c-.051-.612-.34-.884-.884-.884-.612 0-.85.272-1.19 1.088l-2.618 6.222-2.618-6.222c-.34-.816-.578-1.088-1.19-1.088-.544 0-.833.272-.884.884l-.816 10.268c-.034.408-.068.748-.068.884 0 .476.306.748.782.748ZM347.266 94.136c1.445 0 2.567-.578 3.332-1.377v.629c0 .476.272.748.782.748s.782-.272.782-.748V87.54c0-2.312-1.7-3.332-3.944-3.332-2.108 0-3.74.748-3.74 1.7 0 .408.34.612.748.612.884 0 1.36-.884 3.128-.884 1.564 0 2.244.748 2.244 1.972v.544a9.833 9.833 0 0 0-2.652-.34c-2.788 0-4.488 1.292-4.488 3.264 0 1.972 1.7 3.06 3.808 3.06Zm.204-1.36c-1.36 0-2.38-.476-2.38-1.7s1.02-1.904 2.856-1.904a8.68 8.68 0 0 1 2.652.408v1.768c-.612.612-1.632 1.428-3.128 1.428ZM357.314 94.136c.51 0 .782-.272.782-.748v-5.78c.748-1.02 1.564-1.972 2.584-1.972.884 0 1.156.68 1.836.68.544 0 .748-.408.748-.748 0-.68-.816-1.36-2.176-1.36-1.326 0-2.278.697-2.992 1.802v-1.054c0-.476-.272-.748-.782-.748s-.782.272-.782.748v8.432c0 .476.272.748.782.748ZM369.351 94.136c2.38 0 4.148-1.088 4.148-3.06 0-1.836-1.36-2.584-3.468-2.856l-.544-.068c-1.564-.204-2.312-.408-2.312-1.292 0-.884.748-1.292 2.108-1.292 2.516 0 2.244 1.7 3.4 1.7.34 0 .612-.272.612-.68 0-1.088-1.496-2.38-3.876-2.38-1.972 0-3.808.816-3.808 2.788s1.768 2.448 3.468 2.652l.544.068c1.564.204 2.312.544 2.312 1.496s-.816 1.564-2.38 1.564c-2.652 0-2.312-1.972-3.468-1.972-.408 0-.68.272-.68.748 0 1.292 1.632 2.584 3.944 2.584ZM381.66 94.136c2.244 0 4.556-1.088 4.556-2.04 0-.34-.272-.612-.68-.612-.952 0-1.972 1.292-3.876 1.292-1.887 0-3.179-1.037-3.383-3.06h7.327c.476 0 .68-.272.68-.68 0-2.856-2.04-4.828-4.828-4.828-2.788 0-4.828 2.04-4.828 4.964 0 2.924 2.04 4.964 5.032 4.964Zm-.204-8.568c1.7 0 2.975.986 3.162 2.856h-6.307c.255-1.887 1.513-2.856 3.145-2.856ZM390.841 94.136c.51 0 .782-.272.782-.748v-8.432c0-.476-.272-.748-.782-.748s-.782.272-.782.748v8.432c0 .476.272.748.782.748Zm0-11.628c.918 0 1.054-.136 1.054-1.326s-.136-1.326-1.054-1.326-1.054.136-1.054 1.326.136 1.326 1.054 1.326ZM396.894 94.136c.51 0 .782-.272.782-.748V81.284c0-.476-.272-.748-.782-.748s-.782.272-.782.748v12.104c0 .476.272.748.782.748ZM402.964 94.136c.51 0 .782-.272.782-.748V81.284c0-.476-.272-.748-.782-.748s-.782.272-.782.748v12.104c0 .476.272.748.782.748ZM412.604 94.136c2.244 0 4.556-1.088 4.556-2.04 0-.34-.272-.612-.68-.612-.952 0-1.972 1.292-3.876 1.292-1.887 0-3.179-1.037-3.383-3.06h7.327c.476 0 .68-.272.68-.68 0-2.856-2.04-4.828-4.828-4.828-2.788 0-4.828 2.04-4.828 4.964 0 2.924 2.04 4.964 5.032 4.964Zm-.204-8.568c1.7 0 2.975.986 3.162 2.856h-6.307c.255-1.887 1.513-2.856 3.145-2.856ZM420.731 97.332c.272 0 .476-.136.68-.544l2.244-4.624c.272-.544.34-.68.34-.952 0-.272-.204-.476-.544-.476h-1.496c-.544 0-.816.272-.952.816l-1.156 4.556c-.068.272-.136.51-.136.68 0 .238.136.34.34.408.204.068.408.136.68.136ZM434.248 82.916h2.312v9.656h-2.312c-.544 0-.816.272-.816.714 0 .442.272.714.816.714h6.256c.544 0 .816-.272.816-.714 0-.442-.272-.714-.816-.714h-2.312v-9.656h2.312c.544 0 .816-.272.816-.714 0-.442-.272-.714-.816-.714h-6.256c-.544 0-.816.272-.816.714 0 .442.272.714.816.714ZM453.613 94.136c.578 0 .918-.34 1.088-.884l1.36-4.318 1.36 4.318c.17.544.51.884 1.088.884.578 0 .918-.34 1.088-.884l2.448-7.48c.136-.408.204-.612.204-.816 0-.476-.34-.748-.748-.748-.544 0-.748.34-.884.816l-2.142 7.344-1.53-4.828c-.136-.408-.34-.748-.884-.748s-.748.34-.884.748l-1.547 4.828-2.125-7.344c-.136-.476-.34-.816-.884-.816-.408 0-.748.272-.748.748 0 .204.068.408.204.816l2.448 7.48c.17.544.51.884 1.088.884ZM468.438 94.136c1.445 0 2.567-.578 3.332-1.377v.629c0 .476.272.748.782.748s.782-.272.782-.748V87.54c0-2.312-1.7-3.332-3.944-3.332-2.108 0-3.74.748-3.74 1.7 0 .408.34.612.748.612.884 0 1.36-.884 3.128-.884 1.564 0 2.244.748 2.244 1.972v.544a9.833 9.833 0 0 0-2.652-.34c-2.788 0-4.488 1.292-4.488 3.264 0 1.972 1.7 3.06 3.808 3.06Zm.204-1.36c-1.36 0-2.38-.476-2.38-1.7s1.02-1.904 2.856-1.904a8.68 8.68 0 0 1 2.652.408v1.768c-.612.612-1.632 1.428-3.128 1.428ZM480.934 94.136c2.38 0 4.148-1.088 4.148-3.06 0-1.836-1.36-2.584-3.468-2.856l-.544-.068c-1.564-.204-2.312-.408-2.312-1.292 0-.884.748-1.292 2.108-1.292 2.516 0 2.244 1.7 3.4 1.7.34 0 .612-.272.612-.68 0-1.088-1.496-2.38-3.876-2.38-1.972 0-3.808.816-3.808 2.788s1.768 2.448 3.468 2.652l.544.068c1.564.204 2.312.544 2.312 1.496s-.816 1.564-2.38 1.564c-2.652 0-2.312-1.972-3.468-1.972-.408 0-.68.272-.68.748 0 1.292 1.632 2.584 3.944 2.584ZM85.066 118.136c2.38 0 4.148-1.088 4.148-3.06 0-1.836-1.36-2.584-3.468-2.856l-.544-.068c-1.564-.204-2.312-.408-2.312-1.292 0-.884.748-1.292 2.108-1.292 2.516 0 2.244 1.7 3.4 1.7.34 0 .612-.272.612-.68 0-1.088-1.496-2.38-3.876-2.38-1.972 0-3.808.816-3.808 2.788s1.768 2.448 3.468 2.652l.544.068c1.564.204 2.312.544 2.312 1.496s-.816 1.564-2.38 1.564c-2.652 0-2.312-1.972-3.468-1.972-.408 0-.68.272-.68.748 0 1.292 1.632 2.584 3.944 2.584ZM93.788 118.136c.51 0 .782-.272.782-.748v-8.432c0-.476-.272-.748-.782-.748s-.782.272-.782.748v8.432c0 .476.272.748.782.748Zm0-11.628c.918 0 1.054-.136 1.054-1.326s-.136-1.326-1.054-1.326-1.054.136-1.054 1.326.136 1.326 1.054 1.326ZM98.43 110.18h1.564v4.556c0 2.176 1.36 3.4 3.74 3.4 2.176 0 4.08-.816 4.08-1.7 0-.34-.272-.612-.748-.612-.748 0-1.428.884-3.332.884-1.496 0-2.176-.68-2.176-2.04v-4.488h4.148c.476 0 .68-.272.68-.646s-.204-.646-.68-.646h-4.148V106.1c0-.476-.272-.748-.782-.748s-.782.272-.782.748v2.788H98.43c-.476 0-.68.272-.68.646s.204.646.68.646ZM109.94 110.18h1.564v4.556c0 2.176 1.36 3.4 3.74 3.4 2.176 0 4.08-.816 4.08-1.7 0-.34-.272-.612-.748-.612-.748 0-1.428.884-3.332.884-1.496 0-2.176-.68-2.176-2.04v-4.488h4.148c.476 0 .68-.272.68-.646s-.204-.646-.68-.646h-4.148V106.1c0-.476-.272-.748-.782-.748s-.782.272-.782.748v2.788h-1.564c-.476 0-.68.272-.68.646s.204.646.68.646ZM122.946 118.136c.51 0 .782-.272.782-.748v-8.432c0-.476-.272-.748-.782-.748s-.782.272-.782.748v8.432c0 .476.272.748.782.748Zm0-11.628c.918 0 1.054-.136 1.054-1.326s-.136-1.326-1.054-1.326-1.054.136-1.054 1.326.136 1.326 1.054 1.326ZM128.982 118.136c.51 0 .782-.272.782-.748v-5.372c0-1.428 1.02-2.38 2.448-2.38s2.312.952 2.312 2.38v5.372c0 .476.272.748.782.748s.782-.272.782-.748v-5.644c0-2.04-1.36-3.536-3.536-3.536-1.36 0-2.193.561-2.788 1.275v-.527c0-.476-.272-.748-.782-.748s-.782.272-.782.748v8.432c0 .476.272.748.782.748ZM144.351 117.32c1.36 0 2.465-.493 3.196-1.377v1.785c0 2.04-.952 2.924-2.992 2.924-.782 0-1.309-.136-1.836-.136-.544 0-.748.272-.748.612 0 .578.867.952 2.448.952 3.06 0 4.692-1.7 4.692-4.488v-8.636c0-.476-.272-.748-.782-.748s-.782.272-.782.748v.646c-.731-.884-1.836-1.394-3.196-1.394-2.72 0-4.556 1.972-4.556 4.556s1.836 4.556 4.556 4.556Zm.068-1.36c-1.632 0-2.992-1.156-2.992-3.196s1.36-3.196 2.992-3.196c1.717 0 3.06 1.105 3.128 3.043v.306c-.068 1.955-1.411 3.043-3.128 3.043ZM162.73 118.136c1.445 0 2.567-.578 3.332-1.377v.629c0 .476.272.748.782.748s.782-.272.782-.748v-5.848c0-2.312-1.7-3.332-3.944-3.332-2.108 0-3.74.748-3.74 1.7 0 .408.34.612.748.612.884 0 1.36-.884 3.128-.884 1.564 0 2.244.748 2.244 1.972v.544a9.833 9.833 0 0 0-2.652-.34c-2.788 0-4.488 1.292-4.488 3.264 0 1.972 1.7 3.06 3.808 3.06Zm.204-1.36c-1.36 0-2.38-.476-2.38-1.7s1.02-1.904 2.856-1.904a8.68 8.68 0 0 1 2.652.408v1.768c-.612.612-1.632 1.428-3.128 1.428ZM171.299 110.18h1.564v4.556c0 2.176 1.36 3.4 3.74 3.4 2.176 0 4.08-.816 4.08-1.7 0-.34-.272-.612-.748-.612-.748 0-1.428.884-3.332.884-1.496 0-2.176-.68-2.176-2.04v-4.488h4.148c.476 0 .68-.272.68-.646s-.204-.646-.68-.646h-4.148V106.1c0-.476-.272-.748-.782-.748s-.782.272-.782.748v2.788h-1.564c-.476 0-.68.272-.68.646s.204.646.68.646ZM188.709 110.18h1.564v4.556c0 2.176 1.36 3.4 3.74 3.4 2.176 0 4.08-.816 4.08-1.7 0-.34-.272-.612-.748-.612-.748 0-1.428.884-3.332.884-1.496 0-2.176-.68-2.176-2.04v-4.488h4.148c.476 0 .68-.272.68-.646s-.204-.646-.68-.646h-4.148V106.1c0-.476-.272-.748-.782-.748s-.782.272-.782.748v2.788h-1.564c-.476 0-.68.272-.68.646s.204.646.68.646ZM201.732 118.136c.51 0 .782-.272.782-.748v-5.372c0-1.428 1.02-2.38 2.448-2.38s2.312.952 2.312 2.38v5.372c0 .476.272.748.782.748s.782-.272.782-.748v-5.644c0-2.04-1.36-3.536-3.536-3.536-1.36 0-2.193.561-2.788 1.275v-4.199c0-.476-.272-.748-.782-.748s-.782.272-.782.748v12.104c0 .476.272.748.782.748ZM217.56 118.136c2.244 0 4.556-1.088 4.556-2.04 0-.34-.272-.612-.68-.612-.952 0-1.972 1.292-3.876 1.292-1.887 0-3.179-1.037-3.383-3.06h7.327c.476 0 .68-.272.68-.68 0-2.856-2.04-4.828-4.828-4.828-2.788 0-4.828 2.04-4.828 4.964 0 2.924 2.04 4.964 5.032 4.964Zm-.204-8.568c1.7 0 2.975.986 3.162 2.856h-6.307c.255-1.887 1.513-2.856 3.145-2.856ZM232.964 118.136c.51 0 .782-.272.782-.748v-5.372c0-1.428 1.02-2.38 2.448-2.38s2.312.952 2.312 2.38v5.372c0 .476.272.748.782.748s.782-.272.782-.748v-5.644c0-2.04-1.36-3.536-3.536-3.536-1.36 0-2.193.561-2.788 1.275v-4.199c0-.476-.272-.748-.782-.748s-.782.272-.782.748v12.104c0 .476.272.748.782.748ZM247.347 118.136c1.445 0 2.567-.578 3.332-1.377v.629c0 .476.272.748.782.748s.782-.272.782-.748v-5.848c0-2.312-1.7-3.332-3.944-3.332-2.108 0-3.74.748-3.74 1.7 0 .408.34.612.748.612.884 0 1.36-.884 3.128-.884 1.564 0 2.244.748 2.244 1.972v.544a9.833 9.833 0 0 0-2.652-.34c-2.788 0-4.488 1.292-4.488 3.264 0 1.972 1.7 3.06 3.808 3.06Zm.204-1.36c-1.36 0-2.38-.476-2.38-1.7s1.02-1.904 2.856-1.904a8.68 8.68 0 0 1 2.652.408v1.768c-.612.612-1.632 1.428-3.128 1.428ZM257.395 118.136c.51 0 .782-.272.782-.748v-5.78c.748-1.02 1.564-1.972 2.584-1.972.884 0 1.156.68 1.836.68.544 0 .748-.408.748-.748 0-.68-.816-1.36-2.176-1.36-1.326 0-2.278.697-2.992 1.802v-1.054c0-.476-.272-.748-.782-.748s-.782.272-.782.748v8.432c0 .476.272.748.782.748ZM271.217 118.136c2.788 0 4.692-2.176 4.692-4.964 0-2.788-1.904-4.964-4.692-4.964-1.479 0-2.601.595-3.332 1.598v-4.522c0-.476-.272-.748-.782-.748s-.782.272-.782.748v12.104c0 .476.272.748.782.748s.782-.272.782-.748v-.85c.731 1.003 1.853 1.598 3.332 1.598Zm-.136-1.36c-1.802 0-3.128-1.156-3.196-3.417v-.357c.068-2.261 1.394-3.434 3.196-3.434 1.836 0 3.196 1.224 3.196 3.604s-1.36 3.604-3.196 3.604ZM284.019 118.136c2.856 0 4.964-2.04 4.964-4.964 0-2.924-2.108-4.964-4.964-4.964-2.856 0-4.964 2.04-4.964 4.964 0 2.924 2.108 4.964 4.964 4.964Zm0-1.36c-1.904 0-3.332-1.224-3.332-3.604s1.428-3.604 3.332-3.604 3.332 1.224 3.332 3.604-1.428 3.604-3.332 3.604ZM296.209 118.136c1.343 0 2.193-.544 2.788-1.275v.527c0 .476.272.748.782.748s.782-.272.782-.748v-8.432c0-.476-.272-.748-.782-.748s-.782.272-.782.748v5.372c0 1.428-1.02 2.38-2.448 2.38s-2.312-.952-2.312-2.38v-5.372c0-.476-.272-.748-.782-.748s-.782.272-.782.748v5.644c0 2.04 1.36 3.536 3.536 3.536ZM305.815 118.136c.51 0 .782-.272.782-.748v-5.78c.748-1.02 1.564-1.972 2.584-1.972.884 0 1.156.68 1.836.68.544 0 .748-.408.748-.748 0-.68-.816-1.36-2.176-1.36-1.326 0-2.278.697-2.992 1.802v-1.054c0-.476-.272-.748-.782-.748s-.782.272-.782.748v8.432c0 .476.272.748.782.748ZM313.092 121.332c.272 0 .476-.136.68-.544l2.244-4.624c.272-.544.34-.68.34-.952 0-.272-.204-.476-.544-.476h-1.496c-.544 0-.816.272-.952.816l-1.156 4.556c-.068.272-.136.51-.136.68 0 .238.136.34.34.408.204.068.408.136.68.136ZM330.893 118.136c2.584 0 4.08-1.292 4.08-2.312 0-.408-.272-.68-.68-.68-.952 0-1.088 1.632-3.4 1.632-1.904 0-3.332-1.224-3.332-3.604s1.428-3.604 3.332-3.604c2.312 0 2.448 1.632 3.4 1.632.408 0 .68-.272.68-.68 0-1.02-1.496-2.312-4.08-2.312-2.924 0-4.964 2.04-4.964 4.964 0 2.924 2.04 4.964 4.964 4.964ZM339.411 118.136c.51 0 .782-.272.782-.748v-12.104c0-.476-.272-.748-.782-.748s-.782.272-.782.748v12.104c0 .476.272.748.782.748ZM348.983 118.136c2.856 0 4.964-2.04 4.964-4.964 0-2.924-2.108-4.964-4.964-4.964-2.856 0-4.964 2.04-4.964 4.964 0 2.924 2.108 4.964 4.964 4.964Zm0-1.36c-1.904 0-3.332-1.224-3.332-3.604s1.428-3.604 3.332-3.604 3.332 1.224 3.332 3.604-1.428 3.604-3.332 3.604ZM360.986 118.136c2.38 0 4.148-1.088 4.148-3.06 0-1.836-1.36-2.584-3.468-2.856l-.544-.068c-1.564-.204-2.312-.408-2.312-1.292 0-.884.748-1.292 2.108-1.292 2.516 0 2.244 1.7 3.4 1.7.34 0 .612-.272.612-.68 0-1.088-1.496-2.38-3.876-2.38-1.972 0-3.808.816-3.808 2.788s1.768 2.448 3.468 2.652l.544.068c1.564.204 2.312.544 2.312 1.496s-.816 1.564-2.38 1.564c-2.652 0-2.312-1.972-3.468-1.972-.408 0-.68.272-.68.748 0 1.292 1.632 2.584 3.944 2.584ZM373.295 118.136c2.244 0 4.556-1.088 4.556-2.04 0-.34-.272-.612-.68-.612-.952 0-1.972 1.292-3.876 1.292-1.887 0-3.179-1.037-3.383-3.06h7.327c.476 0 .68-.272.68-.68 0-2.856-2.04-4.828-4.828-4.828-2.788 0-4.828 2.04-4.828 4.964 0 2.924 2.04 4.964 5.032 4.964Zm-.204-8.568c1.7 0 2.975.986 3.162 2.856h-6.307c.255-1.887 1.513-2.856 3.145-2.856ZM389.837 118.136c.51 0 .782-.272.782-.748v-12.104c0-.476-.272-.748-.782-.748s-.782.272-.782.748v4.522c-.731-1.003-1.87-1.598-3.332-1.598-2.788 0-4.692 2.176-4.692 4.964 0 2.788 1.904 4.964 4.692 4.964 1.462 0 2.601-.595 3.332-1.598v.85c0 .476.272.748.782.748Zm-3.978-1.36c-1.836 0-3.196-1.224-3.196-3.604s1.36-3.604 3.196-3.604 3.196 1.224 3.196 3.604-1.36 3.604-3.196 3.604ZM412.568 118.136c.51 0 .782-.272.782-.748V111.2c0-1.768-1.224-2.992-3.06-2.992-1.292 0-2.074.544-2.652 1.309-.51-.816-1.411-1.309-2.516-1.309-1.037 0-1.734.442-2.244 1.071v-.323c0-.476-.272-.748-.782-.748s-.782.272-.782.748v8.432c0 .476.272.748.782.748s.782-.272.782-.748v-5.848c0-1.156.748-1.904 1.904-1.904s1.768.748 1.768 1.904v5.848c0 .476.272.748.782.748s.782-.272.782-.748v-5.933c.034-1.105.765-1.819 1.904-1.819 1.156 0 1.768.748 1.768 1.904v5.848c0 .476.272.748.782.748ZM419.352 122.08c.51 0 .782-.272 1.054-.816l5.644-11.696c.136-.272.204-.476.204-.68 0-.408-.272-.68-.714-.68-.476 0-.68.306-.85.68l-3.179 6.919-3.417-6.919c-.238-.476-.442-.68-.918-.68-.442 0-.714.306-.714.714 0 .272.102.442.204.646l3.927 7.871-1.683 3.485c-.102.204-.204.408-.204.612 0 .306.204.544.646.544ZM439.72 118.136c2.244 0 4.556-1.088 4.556-2.04 0-.34-.272-.612-.68-.612-.952 0-1.972 1.292-3.876 1.292-1.887 0-3.179-1.037-3.383-3.06h7.327c.476 0 .68-.272.68-.68 0-2.856-2.04-4.828-4.828-4.828-2.788 0-4.828 2.04-4.828 4.964 0 2.924 2.04 4.964 5.032 4.964Zm-.204-8.568c1.7 0 2.975.986 3.162 2.856h-6.307c.255-1.887 1.513-2.856 3.145-2.856ZM449.666 122.08c.51 0 .782-.272 1.054-.816l5.644-11.696c.136-.272.204-.476.204-.68 0-.408-.272-.68-.714-.68-.476 0-.68.306-.85.68l-3.179 6.919-3.417-6.919c-.238-.476-.442-.68-.918-.68-.442 0-.714.306-.714.714 0 .272.102.442.204.646l3.927 7.871-1.683 3.485c-.102.204-.204.408-.204.612 0 .306.204.544.646.544ZM464.015 118.136c2.244 0 4.556-1.088 4.556-2.04 0-.34-.272-.612-.68-.612-.952 0-1.972 1.292-3.876 1.292-1.887 0-3.179-1.037-3.383-3.06h7.327c.476 0 .68-.272.68-.68 0-2.856-2.04-4.828-4.828-4.828-2.788 0-4.828 2.04-4.828 4.964 0 2.924 2.04 4.964 5.032 4.964Zm-.204-8.568c1.7 0 2.975.986 3.162 2.856h-6.307c.255-1.887 1.513-2.856 3.145-2.856ZM475.644 118.136c2.38 0 4.148-1.088 4.148-3.06 0-1.836-1.36-2.584-3.468-2.856l-.544-.068c-1.564-.204-2.312-.408-2.312-1.292 0-.884.748-1.292 2.108-1.292 2.516 0 2.244 1.7 3.4 1.7.34 0 .612-.272.612-.68 0-1.088-1.496-2.38-3.876-2.38-1.972 0-3.808.816-3.808 2.788s1.768 2.448 3.468 2.652l.544.068c1.564.204 2.312.544 2.312 1.496s-.816 1.564-2.38 1.564c-2.652 0-2.312-1.972-3.468-1.972-.408 0-.68.272-.68.748 0 1.292 1.632 2.584 3.944 2.584ZM483.312 121.332c.272 0 .476-.136.68-.544l2.244-4.624c.272-.544.34-.68.34-.952 0-.272-.204-.476-.544-.476h-1.496c-.544 0-.816.272-.952.816l-1.156 4.556c-.068.272-.136.51-.136.68 0 .238.136.34.34.408.204.068.408.136.68.136ZM495.792 110.18h1.564v4.556c0 2.176 1.36 3.4 3.74 3.4 2.176 0 4.08-.816 4.08-1.7 0-.34-.272-.612-.748-.612-.748 0-1.428.884-3.332.884-1.496 0-2.176-.68-2.176-2.04v-4.488h4.148c.476 0 .68-.272.68-.646s-.204-.646-.68-.646h-4.148V106.1c0-.476-.272-.748-.782-.748s-.782.272-.782.748v2.788h-1.564c-.476 0-.68.272-.68.646s.204.646.68.646ZM512.317 118.136c2.856 0 4.964-2.04 4.964-4.964 0-2.924-2.108-4.964-4.964-4.964-2.856 0-4.964 2.04-4.964 4.964 0 2.924 2.108 4.964 4.964 4.964Zm0-1.36c-1.904 0-3.332-1.224-3.332-3.604s1.428-3.604 3.332-3.604 3.332 1.224 3.332 3.604-1.428 3.604-3.332 3.604ZM525.391 118.136c2.856 0 4.964-2.04 4.964-4.964 0-2.924-2.108-4.964-4.964-4.964-2.856 0-4.964 2.04-4.964 4.964 0 2.924 2.108 4.964 4.964 4.964Zm0-1.36c-1.904 0-3.332-1.224-3.332-3.604s1.428-3.604 3.332-3.604 3.332 1.224 3.332 3.604-1.428 3.604-3.332 3.604ZM541.559 118.136c.408 0 .714-.238.714-.612 0-.272-.136-.476-.34-.748l-3.791-4.811 2.907-2.465c.306-.272.408-.442.408-.68 0-.34-.238-.612-.68-.612-.34 0-.612.17-.884.408l-4.148 3.621v-6.953c0-.476-.272-.748-.782-.748s-.782.272-.782.748v12.104c0 .476.272.748.782.748s.782-.272.782-.748v-3.383l1.241-1.054 3.485 4.505c.34.442.578.68 1.088.68ZM84.76 142.136c1.445 0 2.567-.578 3.332-1.377v.629c0 .476.272.748.782.748s.782-.272.782-.748v-5.848c0-2.312-1.7-3.332-3.944-3.332-2.108 0-3.74.748-3.74 1.7 0 .408.34.612.748.612.884 0 1.36-.884 3.128-.884 1.564 0 2.244.748 2.244 1.972v.544a9.833 9.833 0 0 0-2.652-.34c-2.788 0-4.488 1.292-4.488 3.264 0 1.972 1.7 3.06 3.808 3.06Zm.204-1.36c-1.36 0-2.38-.476-2.38-1.7s1.02-1.904 2.856-1.904a8.68 8.68 0 0 1 2.652.408v1.768c-.612.612-1.632 1.428-3.128 1.428ZM108.375 142.136c.51 0 .782-.272.782-.748v-12.104c0-.476-.272-.748-.782-.748s-.782.272-.782.748v4.522c-.731-1.003-1.87-1.598-3.332-1.598-2.788 0-4.692 2.176-4.692 4.964 0 2.788 1.904 4.964 4.692 4.964 1.462 0 2.601-.595 3.332-1.598v.85c0 .476.272.748.782.748Zm-3.978-1.36c-1.836 0-3.196-1.224-3.196-3.604s1.36-3.604 3.196-3.604 3.196 1.224 3.196 3.604-1.36 3.604-3.196 3.604ZM118.015 142.136c2.244 0 4.556-1.088 4.556-2.04 0-.34-.272-.612-.68-.612-.952 0-1.972 1.292-3.876 1.292-1.887 0-3.179-1.037-3.383-3.06h7.327c.476 0 .68-.272.68-.68 0-2.856-2.04-4.828-4.828-4.828-2.788 0-4.828 2.04-4.828 4.964 0 2.924 2.04 4.964 5.032 4.964Zm-.204-8.568c1.7 0 2.975.986 3.162 2.856h-6.307c.255-1.887 1.513-2.856 3.145-2.856ZM130.783 142.136c2.244 0 4.556-1.088 4.556-2.04 0-.34-.272-.612-.68-.612-.952 0-1.972 1.292-3.876 1.292-1.887 0-3.179-1.037-3.383-3.06h7.327c.476 0 .68-.272.68-.68 0-2.856-2.04-4.828-4.828-4.828-2.788 0-4.828 2.04-4.828 4.964 0 2.924 2.04 4.964 5.032 4.964Zm-.204-8.568c1.7 0 2.975.986 3.162 2.856h-6.307c.255-1.887 1.513-2.856 3.145-2.856ZM144.095 142.136c2.788 0 4.692-2.176 4.692-4.964 0-2.788-1.904-4.964-4.692-4.964-1.479 0-2.601.595-3.332 1.598v-.85c0-.476-.272-.748-.782-.748s-.782.272-.782.748v12.376c0 .476.272.748.782.748s.782-.272.782-.748v-4.794c.731 1.003 1.853 1.598 3.332 1.598Zm-.136-1.36c-1.802 0-3.128-1.156-3.196-3.417v-.357c.068-2.261 1.394-3.434 3.196-3.434 1.836 0 3.196 1.224 3.196 3.604s-1.36 3.604-3.196 3.604ZM163.715 142.136c2.788 0 4.692-2.176 4.692-4.964 0-2.788-1.904-4.964-4.692-4.964-1.479 0-2.601.595-3.332 1.598v-4.522c0-.476-.272-.748-.782-.748s-.782.272-.782.748v12.104c0 .476.272.748.782.748s.782-.272.782-.748v-.85c.731 1.003 1.853 1.598 3.332 1.598Zm-.136-1.36c-1.802 0-3.128-1.156-3.196-3.417v-.357c.068-2.261 1.394-3.434 3.196-3.434 1.836 0 3.196 1.224 3.196 3.604s-1.36 3.604-3.196 3.604ZM172.998 142.136c.51 0 .782-.272.782-.748v-5.78c.748-1.02 1.564-1.972 2.584-1.972.884 0 1.156.68 1.836.68.544 0 .748-.408.748-.748 0-.68-.816-1.36-2.176-1.36-1.326 0-2.278.697-2.992 1.802v-1.054c0-.476-.272-.748-.782-.748s-.782.272-.782.748v8.432c0 .476.272.748.782.748ZM186.004 142.136c2.244 0 4.556-1.088 4.556-2.04 0-.34-.272-.612-.68-.612-.952 0-1.972 1.292-3.876 1.292-1.887 0-3.179-1.037-3.383-3.06h7.327c.476 0 .68-.272.68-.68 0-2.856-2.04-4.828-4.828-4.828-2.788 0-4.828 2.04-4.828 4.964 0 2.924 2.04 4.964 5.032 4.964Zm-.204-8.568c1.7 0 2.975.986 3.162 2.856h-6.307c.255-1.887 1.513-2.856 3.145-2.856ZM197.327 142.136c1.445 0 2.567-.578 3.332-1.377v.629c0 .476.272.748.782.748s.782-.272.782-.748v-5.848c0-2.312-1.7-3.332-3.944-3.332-2.108 0-3.74.748-3.74 1.7 0 .408.34.612.748.612.884 0 1.36-.884 3.128-.884 1.564 0 2.244.748 2.244 1.972v.544a9.833 9.833 0 0 0-2.652-.34c-2.788 0-4.488 1.292-4.488 3.264 0 1.972 1.7 3.06 3.808 3.06Zm.204-1.36c-1.36 0-2.38-.476-2.38-1.7s1.02-1.904 2.856-1.904a8.68 8.68 0 0 1 2.652.408v1.768c-.612.612-1.632 1.428-3.128 1.428ZM205.896 134.18h1.564v4.556c0 2.176 1.36 3.4 3.74 3.4 2.176 0 4.08-.816 4.08-1.7 0-.34-.272-.612-.748-.612-.748 0-1.428.884-3.332.884-1.496 0-2.176-.68-2.176-2.04v-4.488h4.148c.476 0 .68-.272.68-.646s-.204-.646-.68-.646h-4.148V130.1c0-.476-.272-.748-.782-.748s-.782.272-.782.748v2.788h-1.564c-.476 0-.68.272-.68.646s.204.646.68.646ZM218.919 142.136c.51 0 .782-.272.782-.748v-5.372c0-1.428 1.02-2.38 2.448-2.38s2.312.952 2.312 2.38v5.372c0 .476.272.748.782.748s.782-.272.782-.748v-5.644c0-2.04-1.36-3.536-3.536-3.536-1.36 0-2.193.561-2.788 1.275v-4.199c0-.476-.272-.748-.782-.748s-.782.272-.782.748v12.104c0 .476.272.748.782.748ZM239.508 142.136c1.445 0 2.567-.578 3.332-1.377v.629c0 .476.272.748.782.748s.782-.272.782-.748v-5.848c0-2.312-1.7-3.332-3.944-3.332-2.108 0-3.74.748-3.74 1.7 0 .408.34.612.748.612.884 0 1.36-.884 3.128-.884 1.564 0 2.244.748 2.244 1.972v.544a9.833 9.833 0 0 0-2.652-.34c-2.788 0-4.488 1.292-4.488 3.264 0 1.972 1.7 3.06 3.808 3.06Zm.204-1.36c-1.36 0-2.38-.476-2.38-1.7s1.02-1.904 2.856-1.904a8.68 8.68 0 0 1 2.652.408v1.768c-.612.612-1.632 1.428-3.128 1.428ZM249.556 142.136c.51 0 .782-.272.782-.748v-5.372c0-1.428 1.02-2.38 2.448-2.38s2.312.952 2.312 2.38v5.372c0 .476.272.748.782.748s.782-.272.782-.748v-5.644c0-2.04-1.36-3.536-3.536-3.536-1.36 0-2.193.561-2.788 1.275v-.527c0-.476-.272-.748-.782-.748s-.782.272-.782.748v8.432c0 .476.272.748.782.748ZM269.158 142.136c.51 0 .782-.272.782-.748v-12.104c0-.476-.272-.748-.782-.748s-.782.272-.782.748v4.522c-.731-1.003-1.87-1.598-3.332-1.598-2.788 0-4.692 2.176-4.692 4.964 0 2.788 1.904 4.964 4.692 4.964 1.462 0 2.601-.595 3.332-1.598v.85c0 .476.272.748.782.748Zm-3.978-1.36c-1.836 0-3.196-1.224-3.196-3.604s1.36-3.604 3.196-3.604 3.196 1.224 3.196 3.604-1.36 3.604-3.196 3.604ZM283.865 142.136c2.38 0 4.148-1.088 4.148-3.06 0-1.836-1.36-2.584-3.468-2.856l-.544-.068c-1.564-.204-2.312-.408-2.312-1.292 0-.884.748-1.292 2.108-1.292 2.516 0 2.244 1.7 3.4 1.7.34 0 .612-.272.612-.68 0-1.088-1.496-2.38-3.876-2.38-1.972 0-3.808.816-3.808 2.788s1.768 2.448 3.468 2.652l.544.068c1.564.204 2.312.544 2.312 1.496s-.816 1.564-2.38 1.564c-2.652 0-2.312-1.972-3.468-1.972-.408 0-.68.272-.68.748 0 1.292 1.632 2.584 3.944 2.584ZM291.091 134.18h1.564v4.556c0 2.176 1.36 3.4 3.74 3.4 2.176 0 4.08-.816 4.08-1.7 0-.34-.272-.612-.748-.612-.748 0-1.428.884-3.332.884-1.496 0-2.176-.68-2.176-2.04v-4.488h4.148c.476 0 .68-.272.68-.646s-.204-.646-.68-.646h-4.148V130.1c0-.476-.272-.748-.782-.748s-.782.272-.782.748v2.788h-1.564c-.476 0-.68.272-.68.646s.204.646.68.646ZM306.239 142.136c1.445 0 2.567-.578 3.332-1.377v.629c0 .476.272.748.782.748s.782-.272.782-.748v-5.848c0-2.312-1.7-3.332-3.944-3.332-2.108 0-3.74.748-3.74 1.7 0 .408.34.612.748.612.884 0 1.36-.884 3.128-.884 1.564 0 2.244.748 2.244 1.972v.544a9.833 9.833 0 0 0-2.652-.34c-2.788 0-4.488 1.292-4.488 3.264 0 1.972 1.7 3.06 3.808 3.06Zm.204-1.36c-1.36 0-2.38-.476-2.38-1.7s1.02-1.904 2.856-1.904a8.68 8.68 0 0 1 2.652.408v1.768c-.612.612-1.632 1.428-3.128 1.428ZM316.287 142.136c.51 0 .782-.272.782-.748v-5.78c.748-1.02 1.564-1.972 2.584-1.972.884 0 1.156.68 1.836.68.544 0 .748-.408.748-.748 0-.68-.816-1.36-2.176-1.36-1.326 0-2.278.697-2.992 1.802v-1.054c0-.476-.272-.748-.782-.748s-.782.272-.782.748v8.432c0 .476.272.748.782.748ZM324.584 134.18h1.564v4.556c0 2.176 1.36 3.4 3.74 3.4 2.176 0 4.08-.816 4.08-1.7 0-.34-.272-.612-.748-.612-.748 0-1.428.884-3.332.884-1.496 0-2.176-.68-2.176-2.04v-4.488h4.148c.476 0 .68-.272.68-.646s-.204-.646-.68-.646h-4.148V130.1c0-.476-.272-.748-.782-.748s-.782.272-.782.748v2.788h-1.564c-.476 0-.68.272-.68.646s.204.646.68.646ZM341.177 142.136c2.244 0 4.556-1.088 4.556-2.04 0-.34-.272-.612-.68-.612-.952 0-1.972 1.292-3.876 1.292-1.887 0-3.179-1.037-3.383-3.06h7.327c.476 0 .68-.272.68-.68 0-2.856-2.04-4.828-4.828-4.828-2.788 0-4.828 2.04-4.828 4.964 0 2.924 2.04 4.964 5.032 4.964Zm-.204-8.568c1.7 0 2.975.986 3.162 2.856h-6.307c.255-1.887 1.513-2.856 3.145-2.856ZM357.719 142.136c.51 0 .782-.272.782-.748v-12.104c0-.476-.272-.748-.782-.748s-.782.272-.782.748v4.522c-.731-1.003-1.87-1.598-3.332-1.598-2.788 0-4.692 2.176-4.692 4.964 0 2.788 1.904 4.964 4.692 4.964 1.462 0 2.601-.595 3.332-1.598v.85c0 .476.272.748.782.748Zm-3.978-1.36c-1.836 0-3.196-1.224-3.196-3.604s1.36-3.604 3.196-3.604 3.196 1.224 3.196 3.604-1.36 3.604-3.196 3.604ZM368.176 134.18h1.564v4.556c0 2.176 1.36 3.4 3.74 3.4 2.176 0 4.08-.816 4.08-1.7 0-.34-.272-.612-.748-.612-.748 0-1.428.884-3.332.884-1.496 0-2.176-.68-2.176-2.04v-4.488h4.148c.476 0 .68-.272.68-.646s-.204-.646-.68-.646h-4.148V130.1c0-.476-.272-.748-.782-.748s-.782.272-.782.748v2.788h-1.564c-.476 0-.68.272-.68.646s.204.646.68.646ZM384.701 142.136c2.856 0 4.964-2.04 4.964-4.964 0-2.924-2.108-4.964-4.964-4.964-2.856 0-4.964 2.04-4.964 4.964 0 2.924 2.108 4.964 4.964 4.964Zm0-1.36c-1.904 0-3.332-1.224-3.332-3.604s1.428-3.604 3.332-3.604 3.332 1.224 3.332 3.604-1.428 3.604-3.332 3.604ZM400.462 142.136c.51 0 .782-.272.782-.748v-5.78c.748-1.02 1.564-1.972 2.584-1.972.884 0 1.156.68 1.836.68.544 0 .748-.408.748-.748 0-.68-.816-1.36-2.176-1.36-1.326 0-2.278.697-2.992 1.802v-1.054c0-.476-.272-.748-.782-.748s-.782.272-.782.748v8.432c0 .476.272.748.782.748ZM413.468 142.136c2.244 0 4.556-1.088 4.556-2.04 0-.34-.272-.612-.68-.612-.952 0-1.972 1.292-3.876 1.292-1.887 0-3.179-1.037-3.383-3.06h7.327c.476 0 .68-.272.68-.68 0-2.856-2.04-4.828-4.828-4.828-2.788 0-4.828 2.04-4.828 4.964 0 2.924 2.04 4.964 5.032 4.964Zm-.204-8.568c1.7 0 2.975.986 3.162 2.856h-6.307c.255-1.887 1.513-2.856 3.145-2.856ZM424.791 142.136c1.445 0 2.567-.578 3.332-1.377v.629c0 .476.272.748.782.748s.782-.272.782-.748v-5.848c0-2.312-1.7-3.332-3.944-3.332-2.108 0-3.74.748-3.74 1.7 0 .408.34.612.748.612.884 0 1.36-.884 3.128-.884 1.564 0 2.244.748 2.244 1.972v.544a9.833 9.833 0 0 0-2.652-.34c-2.788 0-4.488 1.292-4.488 3.264 0 1.972 1.7 3.06 3.808 3.06Zm.204-1.36c-1.36 0-2.38-.476-2.38-1.7s1.02-1.904 2.856-1.904a8.68 8.68 0 0 1 2.652.408v1.768c-.612.612-1.632 1.428-3.128 1.428ZM434.856 142.136c.51 0 .782-.272.782-.748v-12.104c0-.476-.272-.748-.782-.748s-.782.272-.782.748v12.104c0 .476.272.748.782.748ZM440.909 142.136c.51 0 .782-.272.782-.748v-8.432c0-.476-.272-.748-.782-.748s-.782.272-.782.748v8.432c0 .476.272.748.782.748Zm0-11.628c.918 0 1.054-.136 1.054-1.326s-.136-1.326-1.054-1.326-1.054.136-1.054 1.326.136 1.326 1.054 1.326ZM452.861 142c.476 0 .68-.272.68-.68 0-.408-.204-.68-.68-.68h-5.508l5.44-6.12c.612-.68.884-1.02.884-1.496 0-.408-.272-.68-.816-.68h-6.596c-.476 0-.68.272-.68.68 0 .408.204.68.68.68h5.304l-5.44 6.12c-.612.68-.884 1.02-.884 1.496 0 .408.272.68.816.68h6.8ZM461.464 142.136c2.244 0 4.556-1.088 4.556-2.04 0-.34-.272-.612-.68-.612-.952 0-1.972 1.292-3.876 1.292-1.887 0-3.179-1.037-3.383-3.06h7.327c.476 0 .68-.272.68-.68 0-2.856-2.04-4.828-4.828-4.828-2.788 0-4.828 2.04-4.828 4.964 0 2.924 2.04 4.964 5.032 4.964Zm-.204-8.568c1.7 0 2.975.986 3.162 2.856h-6.307c.255-1.887 1.513-2.856 3.145-2.856ZM475.049 134.18h1.564v4.556c0 2.176 1.36 3.4 3.74 3.4 2.176 0 4.08-.816 4.08-1.7 0-.34-.272-.612-.748-.612-.748 0-1.428.884-3.332.884-1.496 0-2.176-.68-2.176-2.04v-4.488h4.148c.476 0 .68-.272.68-.646s-.204-.646-.68-.646h-4.148V130.1c0-.476-.272-.748-.782-.748s-.782.272-.782.748v2.788h-1.564c-.476 0-.68.272-.68.646s.204.646.68.646ZM488.072 142.136c.51 0 .782-.272.782-.748v-5.372c0-1.428 1.02-2.38 2.448-2.38s2.312.952 2.312 2.38v5.372c0 .476.272.748.782.748s.782-.272.782-.748v-5.644c0-2.04-1.36-3.536-3.536-3.536-1.36 0-2.193.561-2.788 1.275v-4.199c0-.476-.272-.748-.782-.748s-.782.272-.782.748v12.104c0 .476.272.748.782.748ZM502.455 142.136c1.445 0 2.567-.578 3.332-1.377v.629c0 .476.272.748.782.748s.782-.272.782-.748v-5.848c0-2.312-1.7-3.332-3.944-3.332-2.108 0-3.74.748-3.74 1.7 0 .408.34.612.748.612.884 0 1.36-.884 3.128-.884 1.564 0 2.244.748 2.244 1.972v.544a9.833 9.833 0 0 0-2.652-.34c-2.788 0-4.488 1.292-4.488 3.264 0 1.972 1.7 3.06 3.808 3.06Zm.204-1.36c-1.36 0-2.38-.476-2.38-1.7s1.02-1.904 2.856-1.904a8.68 8.68 0 0 1 2.652.408v1.768c-.612.612-1.632 1.428-3.128 1.428ZM511.024 134.18h1.564v4.556c0 2.176 1.36 3.4 3.74 3.4 2.176 0 4.08-.816 4.08-1.7 0-.34-.272-.612-.748-.612-.748 0-1.428.884-3.332.884-1.496 0-2.176-.68-2.176-2.04v-4.488h4.148c.476 0 .68-.272.68-.646s-.204-.646-.68-.646h-4.148V130.1c0-.476-.272-.748-.782-.748s-.782.272-.782.748v2.788h-1.564c-.476 0-.68.272-.68.646s.204.646.68.646ZM84.607 166.136c.578 0 .918-.34 1.088-.884l1.36-4.318 1.36 4.318c.17.544.51.884 1.088.884.578 0 .918-.34 1.088-.884l2.448-7.48c.136-.408.204-.612.204-.816 0-.476-.34-.748-.748-.748-.544 0-.748.34-.884.816l-2.142 7.344-1.53-4.828c-.136-.408-.34-.748-.884-.748s-.748.34-.884.748l-1.547 4.828-2.125-7.344c-.136-.476-.34-.816-.884-.816-.408 0-.748.272-.748.748 0 .204.068.408.204.816l2.448 7.48c.17.544.51.884 1.088.884ZM97.545 166.136c.51 0 .782-.272.782-.748v-5.372c0-1.428 1.02-2.38 2.448-2.38s2.312.952 2.312 2.38v5.372c0 .476.272.748.782.748s.782-.272.782-.748v-5.644c0-2.04-1.36-3.536-3.536-3.536-1.36 0-2.193.561-2.788 1.275v-4.199c0-.476-.272-.748-.782-.748s-.782.272-.782.748v12.104c0 .476.272.748.782.748ZM113.373 166.136c2.244 0 4.556-1.088 4.556-2.04 0-.34-.272-.612-.68-.612-.952 0-1.972 1.292-3.876 1.292-1.887 0-3.179-1.037-3.383-3.06h7.327c.476 0 .68-.272.68-.68 0-2.856-2.04-4.828-4.828-4.828-2.788 0-4.828 2.04-4.828 4.964 0 2.924 2.04 4.964 5.032 4.964Zm-.204-8.568c1.7 0 2.975.986 3.162 2.856h-6.307c.255-1.887 1.513-2.856 3.145-2.856ZM122.554 166.136c.51 0 .782-.272.782-.748v-5.372c0-1.428 1.02-2.38 2.448-2.38s2.312.952 2.312 2.38v5.372c0 .476.272.748.782.748s.782-.272.782-.748v-5.644c0-2.04-1.36-3.536-3.536-3.536-1.36 0-2.193.561-2.788 1.275v-.527c0-.476-.272-.748-.782-.748s-.782.272-.782.748v8.432c0 .476.272.748.782.748ZM138.382 166.136c2.244 0 4.556-1.088 4.556-2.04 0-.34-.272-.612-.68-.612-.952 0-1.972 1.292-3.876 1.292-1.887 0-3.179-1.037-3.383-3.06h7.327c.476 0 .68-.272.68-.68 0-2.856-2.04-4.828-4.828-4.828-2.788 0-4.828 2.04-4.828 4.964 0 2.924 2.04 4.964 5.032 4.964Zm-.204-8.568c1.7 0 2.975.986 3.162 2.856h-6.307c.255-1.887 1.513-2.856 3.145-2.856ZM150.113 166.136c.612 0 .952-.34 1.156-.816l3.264-7.684c.102-.238.204-.442.204-.714 0-.442-.34-.714-.748-.714s-.68.238-.884.748l-2.992 7.48-2.992-7.48c-.204-.51-.476-.748-.884-.748-.408 0-.748.272-.748.714 0 .272.102.476.204.714l3.264 7.684c.204.476.544.816 1.156.816ZM162.303 166.136c2.244 0 4.556-1.088 4.556-2.04 0-.34-.272-.612-.68-.612-.952 0-1.972 1.292-3.876 1.292-1.887 0-3.179-1.037-3.383-3.06h7.327c.476 0 .68-.272.68-.68 0-2.856-2.04-4.828-4.828-4.828-2.788 0-4.828 2.04-4.828 4.964 0 2.924 2.04 4.964 5.032 4.964Zm-.204-8.568c1.7 0 2.975.986 3.162 2.856h-6.307c.255-1.887 1.513-2.856 3.145-2.856ZM171.484 166.136c.51 0 .782-.272.782-.748v-5.78c.748-1.02 1.564-1.972 2.584-1.972.884 0 1.156.68 1.836.68.544 0 .748-.408.748-.748 0-.68-.816-1.36-2.176-1.36-1.326 0-2.278.697-2.992 1.802v-1.054c0-.476-.272-.748-.782-.748s-.782.272-.782.748v8.432c0 .476.272.748.782.748Z"/></g><path stroke="#31E992" stroke-linecap="round" stroke-width="2" d="M180.5 169v-20"/><g stroke="#000" transform="translate(81 82)"><circle cx="20.5" cy="5.5" r="5" fill="#E9FF2F" transform="rotate(-180 20.5 5.5)"/><circle cx="5.5" cy="5.5" r="5" fill="#B9D5FF" transform="rotate(-180 5.5 5.5)"/></g></g></svg>