<svg xmlns="http://www.w3.org/2000/svg" xmlns:xlink="http://www.w3.org/1999/xlink" width="636" height="470"><defs><filter id="c" width="284%" height="100%" x="-92%" y="0%" filterUnits="objectBoundingBox"><feGaussianBlur in="SourceGraphic" stdDeviation="50 0"/></filter><filter id="d" width="284%" height="100%" x="-92%" y="0%" filterUnits="objectBoundingBox"><feGaussianBlur in="SourceGraphic" stdDeviation="50 0"/></filter><rect id="a" width="293" height="430" x="0" y="0" rx="6"/></defs><g fill="none" fill-rule="evenodd"><path d="M0 0h636v470H0z"/><g transform="translate(322 20)"><mask id="b" fill="#fff"><use xlink:href="#a"/></mask><g mask="url(#b)"><g transform="translate(-.254 .372)"><path fill="#E9FF2F" d="M0 429.557v-30.683h293.507v30.683zM0 368.192V337.51h293.507v30.683z"/><path fill="#B9D5FF" d="M0 398.874v-30.683h293.507v30.683zM0 337.51v-30.684h293.507v30.683z"/><path fill="#E9FF2F" d="M0 306.826v-30.683h293.507v30.683z"/><path fill="#B9D5FF" d="M0 276.144v-30.683h293.507v30.683z"/><path fill="#E9FF2F" d="M0 245.461v-30.683h293.507v30.683z"/><path fill="#B9D5FF" d="M0 214.778v-30.683h293.507v30.683z"/><path fill="#E9FF2F" d="M0 184.096v-30.683h293.507v30.683z"/><path fill="#B9D5FF" d="M0 153.413V122.73h293.507v30.683z"/><path fill="#E9FF2F" d="M0 122.73V92.047h293.507v30.683z"/><path fill="#B9D5FF" d="M0 92.048V61.365h293.507v30.683z"/><path fill="#E9FF2F" d="M0 61.365V30.682h293.507v30.683z"/><path fill="#B9D5FF" d="M0 30.682V0h293.507v30.683z"/><ellipse cx="146.754" cy="265.001" fill="#E9FF2F" filter="url(#c)" rx="81.53" ry="80.141" transform="rotate(-90 146.754 265.001)"/><ellipse cx="146.754" cy="163.904" fill="#B9D5FF" filter="url(#d)" rx="81.53" ry="80.141" transform="rotate(-90 146.754 163.904)"/></g></g></g><rect width="292" height="429" x="322.5" y="20.5" stroke="#000" rx="6"/><g stroke="#000" transform="translate(81 103)"><ellipse cx="80.141" cy="182.627" fill="#E9FF2F" rx="81.03" ry="79.641" transform="rotate(-90 80.141 182.627)"/><ellipse cx="80.141" cy="81.53" fill="#B9D5FF" rx="81.03" ry="79.641" transform="rotate(-90 80.141 81.53)"/></g></g></svg>